PathFileType	4	(X/Y/Z)	C:\Users\chris\Documents\GitHub\baseballds\vids\pitch5_Sports2D\pitch5_Sports2D_px_person05.trc
DataRate	CameraRate	NumFrames	NumMarkers	Units	OrigDataRate	OrigDataStartFrame	OrigNumFrames
30	30	11	22	m	30	93	149
Frame#	Time	Hip			RHip			RKnee			RAnkle			RBigToe			RSmallToe			RHeel			LHip			LKnee			LAnkle			LBigToe			LSmallToe			LHeel			Neck			Head			Nose			RShoulder			RElbow			RWrist			LShoulder			LElbow			LWrist		
		X1	Y1	Z1	X2	Y2	Z2	X3	Y3	Z3	X4	Y4	Z4	X5	Y5	Z5	X6	Y6	Z6	X7	Y7	Z7	X8	Y8	Z8	X9	Y9	Z9	X10	Y10	Z10	X11	Y11	Z11	X12	Y12	Z12	X13	Y13	Z13	X14	Y14	Z14	X15	Y15	Z15	X16	Y16	Z16	X17	Y17	Z17	X18	Y18	Z18	X19	Y19	Z19	X20	Y20	Z20	X21	Y21	Z21	X22	Y22	Z22
93	3.1	1419.6063687658122	489.6564744080061	0.0	1419.4541425729992	490.34175592055686	0.0	1420.992266736609	504.63028763903293	0.0	1406.3758956930133	500.8730874346351	0.0	1404.113204195543	503.5789940804526	0.0	1404.0080767487118	503.0130268757805	0.0	1405.604947248794	499.23578267351104	0.0	1418.662404264124	490.2638425842069	0.0	1419.5331228054508	503.2437343539838	0.0	1406.2650742207602	500.3902136537578	0.0	1403.2319926728155	504.06854202823877	0.0	1403.3088642159514	503.1424705996716	0.0	1404.433528300906	499.14046419303975	0.0	1421.238159820382	471.11507158276606	0.0	1423.5189169056441	461.68751274730005	0.0	1425.137698334517	466.59401218807295	0.0	1419.6980343003902	473.3173355957518	0.0	1415.1669653601757	483.0537257561814	0.0	1424.6454051987553	486.73428320212963	0.0	1421.8453411963887	473.42791519559887	0.0	1421.9413105843178	481.0467064788535	0.0	1429.8102355405385	483.0090090083929	0.0
94	3.1333333333333333	1419.327159865935	489.57229884091737	0.0	1419.2060192582608	490.1714210054367	0.0	1420.7143901365794	504.6131439933969	0.0	1406.4818800710739	500.7971152372761	0.0	1404.293955645849	504.0297454369228	0.0	1403.9862890804234	503.57810871553636	0.0	1405.4156882613302	499.15510675543857	0.0	1418.7585419667976	490.13083792420406	0.0	1420.0031278601814	503.32765621014937	0.0	1406.4075975816772	500.5172986377423	0.0	1403.2583025037964	504.1758358693612	0.0	1402.9245228061611	503.2297008723144	0.0	1404.584650382385	499.2247711887065	0.0	1420.968815441073	471.0488325976962	0.0	1423.1613603362844	461.64585340197715	0.0	1424.9367237895053	466.59007823199227	0.0	1419.5992415044054	473.37473623950797	0.0	1415.531578829266	483.2621859601821	0.0	1424.9613814414413	486.66525493335155	0.0	1421.3280309590905	473.3954122963977	0.0	1421.444639419334	481.168573152158	0.0	1429.5075556966558	483.12752174767667	0.0
95	3.1666666666666665	1419.045127289227	489.55169216498234	0.0	1418.9738525880994	490.0874025197868	0.0	1420.4777083652052	504.59028691006995	0.0	1406.507722553163	500.7503390772284	0.0	1404.344917471714	504.3221203479187	0.0	1403.8236125363815	503.8341098264033	0.0	1405.2120471417988	499.0587175475996	0.0	1418.7948592147363	490.05565560250136	0.0	1420.22778184626	503.3978936948734	0.0	1406.4833169550486	500.59181303071176	0.0	1403.2542249482126	504.23450060225525	0.0	1402.645761810723	503.2644702614622	0.0	1404.6466185783297	499.2653263665581	0.0	1420.7165848622703	471.0622239975562	0.0	1422.7775027991468	461.6414529284526	0.0	1424.7061187398956	466.6165689881923	0.0	1419.460560129567	473.4844619084818	0.0	1415.863542811061	483.46977590542645	0.0	1425.2920774147703	486.5661960089326	0.0	1420.823638614038	473.4500585037997	0.0	1420.9078099579365	481.3484653172724	0.0	1429.224236451898	483.2213171833278	0.0
96	3.2	1418.7017282145005	489.6251109134568	0.0	1418.7520114738863	490.16016332278036	0.0	1420.279232132416	504.5119823933272	0.0	1406.3369965570569	500.70045914820776	0.0	1404.1694034494058	504.2260488262175	0.0	1403.3448612205389	503.49780831212485	0.0	1404.8918489933667	498.8701138543036	0.0	1418.5332689225552	490.08402909955754	0.0	1419.9020195190774	503.4036482900809	0.0	1406.3871231736016	500.4979267981108	0.0	1403.1954133863035	504.1578569761121	0.0	1402.6168737746607	503.14409078875576	0.0	1404.5177754770948	499.1797789589196	0.0	1420.4858134841652	471.1799536084826	0.0	1422.2851847724442	461.66502465697204	0.0	1424.334514572498	466.66113551780035	0.0	1419.2321356843895	473.6636963118071	0.0	1416.1005284705902	483.58531572843526	0.0	1425.7598654424617	486.2656717317163	0.0	1420.30275523681	473.6424932650441	0.0	1420.283750765248	481.6003426783493	0.0	1429.0090271437057	483.23893482286803	0.0
97	3.2333333333333334	1418.2555054444438	489.71940626771715	0.0	1418.5374096514724	490.3385284651432	0.0	1420.0607975374394	504.3963715202001	0.0	1406.0248478971778	500.575171892496	0.0	1403.934380494495	503.86313954233526	0.0	1402.7187269561166	502.8320916627173	0.0	1404.423397217924	498.5910240827631	0.0	1417.8774377521736	490.1885845455894	0.0	1419.188584594858	503.33794121397057	0.0	1406.1585565779958	500.22012039816985	0.0	1403.1753977892088	503.9626176020189	0.0	1402.8165489019882	502.91323889479577	0.0	1404.268571852732	498.98946369686035	0.0	1420.2323238258168	471.279679230117	0.0	1421.685234488218	461.65426319702715	0.0	1423.788203337456	466.6672411837011	0.0	1418.9388906900176	473.8357723336492	0.0	1416.2334591242782	483.53523023419785	0.0	1426.4266853107883	485.66057457786076	0.0	1419.7683139001022	473.8469065232141	0.0	1419.6091617360064	481.820079233022	0.0	1428.8238287637369	483.17207809516043	0.0
98	3.2666666666666666	1417.7384170196156	489.7645939217046	0.0	1418.307297307388	490.52240223456	0.0	1419.8007038941787	504.4182054640485	0.0	1405.857548723327	500.35974377931194	0.0	1403.955217139298	503.74216564648685	0.0	1402.432671767547	502.55240012478544	0.0	1404.0662791679276	498.34954606757856	0.0	1417.0345458330607	490.31771066854054	0.0	1418.73031699088	503.2922322713878	0.0	1406.0147913779972	499.94527298211176	0.0	1403.4044134654296	503.8139107017447	0.0	1403.098117856218	502.79311766565615	0.0	1404.147455221758	498.8347700770492	0.0	1419.8784240920227	471.30627847028666	0.0	1421.118678821876	461.5754524752255	0.0	1423.1949759323245	466.64257418137146	0.0	1418.6511639464215	473.94509678537906	0.0	1416.3428632195782	483.40742845280096	0.0	1426.994902778062	484.9303394005194	0.0	1419.313428294114	473.9228405078879	0.0	1419.0577713069179	481.90655080348023	0.0	1428.481621835561	483.10064739711197	0.0
99	3.3	1417.2258230296543	489.8394551718673	0.0	1417.9881278729656	490.7043151512572	0.0	1419.5535413244882	504.6774561384483	0.0	1406.012725588711	500.0924367640466	0.0	1404.2127857172613	503.9361645362749	0.0	1402.643718677462	502.8112314617077	0.0	1404.1271514484251	498.1766123165892	0.0	1416.3457361295605	490.4822924939018	0.0	1418.8378184694477	503.33834887181894	0.0	1406.12502136434	499.84072127154354	0.0	1403.889143100708	503.8139323133121	0.0	1403.3580331075127	502.83329489198024	0.0	1404.284693084716	498.76380340668743	0.0	1419.3928083434523	471.44273605640984	0.0	1420.7023615569422	461.54026082378795	0.0	1422.710005208023	466.72711625146684	0.0	1418.3300926765453	474.07977087917624	0.0	1416.515194531338	483.3924238872591	0.0	1427.0701010082598	484.36787605448603	0.0	1418.9884854475467	473.97720258907293	0.0	1418.7666577287907	481.94208408692424	0.0	1427.87067011461	483.0900553896565	0.0
100	3.3333333333333335	1416.7447253635096	490.0238107445897	0.0	1417.5214068510857	490.9078902369682	0.0	1419.3476533228486	504.9421618102575	0.0	1406.303088703734	499.8076228210579	0.0	1404.3183089676106	503.8619808262576	0.0	1402.8801863970048	503.0160276253827	0.0	1404.4289167878192	497.9046165304595	0.0	1415.8418551180605	490.69531328518195	0.0	1419.0516676510606	503.4125950303155	0.0	1406.4077607626255	499.84463916219994	0.0	1404.179158499447	503.8675741002048	0.0	1403.4349166521129	502.7871167760239	0.0	1404.4993858914397	498.65203922390845	0.0	1418.82520575207	471.79630335743667	0.0	1420.3611465976162	461.68477783140486	0.0	1422.3421449516034	467.0344650506119	0.0	1417.8597213679402	474.32004300615563	0.0	1416.7168299708787	483.54173261464575	0.0	1426.7639166069534	484.04982719346145	0.0	1418.6181536516663	474.19176490124164	0.0	1418.6821829212715	482.0525462749296	0.0	1427.1943035350685	483.074161210594	0.0
101	3.3666666666666667	1416.25495927993	490.2323895731659	0.0	1416.9768663073655	491.097485678863	0.0	1419.1969527819133	504.9799635294693	0.0	1406.43503333645	499.5899741111996	0.0	1404.0564293389787	503.31662925162084	0.0	1402.7381398771854	502.81212068727683	0.0	1404.5439737308288	497.4990683209912	0.0	1415.2468760279849	490.8914070322942	0.0	1418.8225341880443	503.45366107380266	0.0	1406.5982366903418	499.83128857796066	0.0	1403.8785184864714	503.88355373478635	0.0	1403.1612098793155	502.5596277721097	0.0	1404.527031292446	498.444346869528	0.0	1418.24623321543	472.18621126711093	0.0	1419.9529404685766	461.9670175807837	0.0	1421.9723863489735	467.4690728311494	0.0	1417.2747343388978	474.596186927714	0.0	1416.871938819958	483.7451002213593	0.0	1426.5024353768574	483.8888133273189	0.0	1417.994087092276	474.512198935165	0.0	1418.6500529283978	482.21036140611517	0.0	1426.689186669486	483.0165233613444	0.0
102	3.4	1415.6838012207616	490.3568867670985	0.0	1416.4351625056615	491.23156473924485	0.0	1419.121852780986	504.8971037464827	0.0	1406.3397716892193	499.5112810117778	0.0	1403.6423773987074	502.83132653334656	0.0	1402.4144316015593	502.4789383762345	0.0	1404.4230545639548	497.16640526902614	0.0	1414.4558687516062	491.0065024954075	0.0	1418.202974412854	503.50337758719417	0.0	1406.4790215096996	499.7899397229199	0.0	1403.2444581716254	503.93792618643084	0.0	1402.6924620159477	502.3954546320964	0.0	1404.323686325058	498.2737283484797	0.0	1417.6684260106326	472.43860116709527	0.0	1419.440070964144	462.26631913656126	0.0	1421.480502223419	467.82593836152853	0.0	1416.729924796685	474.8057233922662	0.0	1416.9944271484674	483.90954014936653	0.0	1426.3479698488045	483.9071501105849	0.0	1417.1543263948072	474.7517147665155	0.0	1418.48456727948	482.3389726078526	0.0	1426.3285857876435	483.03585954202845	0.0
103	3.433333333333333	1414.9691286881296	490.42021813687364	0.0	1415.826447845539	491.3269669809423	0.0	1419.0432168475882	504.8493528048179	0.0	1406.1060641712288	499.52054085855116	0.0	1403.3485202059783	502.77090443544375	0.0	1402.229571287975	502.3184465998561	0.0	1404.2415509953905	497.03058601105016	0.0	1413.595145890146	491.075249274003	0.0	1417.5362715204626	503.5696105455729	0.0	1406.0365944480452	499.7496506896764	0.0	1402.739617616711	504.07405103477015	0.0	1402.372614314651	502.44370180968366	0.0	1403.9953825935984	498.2377979209463	0.0	1417.048358510036	472.58601763170543	0.0	1418.841023434782	462.5494742676018	0.0	1420.8352558263236	468.02339723442566	0.0	1416.259403205502	474.93501049651405	0.0	1417.0843805708466	484.01839357835706	0.0	1426.0126166252917	484.2271363656546	0.0	1416.2431898456362	474.8654831124045	0.0	1417.8920582867465	482.44561137430344	0.0	1426.0427383911542	483.1856247612884	0.0
